<svg width="117" height="26" viewBox="0 0 117 26" fill="none" xmlns="http://www.w3.org/2000/svg">
<path d="M2.56 3.6H5.28V23.44H14.08V26H2.56V3.6Z" fill="#F7F7F7"/>
<path d="M11.544 13.912C11.928 14.584 12.328 15.176 12.744 15.688C13.176 16.2 13.656 16.6 14.184 16.888C14.712 17.176 15.312 17.32 15.984 17.32C16.88 17.32 17.6 17.072 18.144 16.576C18.688 16.08 18.96 15.448 18.96 14.68C18.96 13.928 18.784 13.328 18.432 12.88C18.08 12.432 17.616 12.072 17.04 11.8C16.48 11.512 15.88 11.256 15.24 11.032C14.824 10.888 14.36 10.704 13.848 10.48C13.336 10.24 12.848 9.944 12.384 9.592C11.92 9.224 11.536 8.776 11.232 8.248C10.944 7.72 10.8 7.072 10.8 6.304C10.8 5.472 11.008 4.728 11.424 4.072C11.84 3.416 12.416 2.904 13.152 2.536C13.888 2.152 14.728 1.96 15.672 1.96C16.584 1.96 17.376 2.136 18.048 2.488C18.736 2.824 19.32 3.264 19.8 3.808C20.28 4.336 20.656 4.896 20.928 5.488L19.176 6.496C18.968 6.08 18.704 5.672 18.384 5.272C18.064 4.872 17.672 4.544 17.208 4.288C16.76 4.032 16.208 3.904 15.552 3.904C14.64 3.904 13.976 4.128 13.56 4.576C13.144 5.008 12.936 5.496 12.936 6.04C12.936 6.504 13.056 6.936 13.296 7.336C13.536 7.72 13.936 8.088 14.496 8.44C15.072 8.776 15.848 9.112 16.824 9.448C17.272 9.608 17.744 9.816 18.24 10.072C18.736 10.328 19.192 10.656 19.608 11.056C20.04 11.44 20.392 11.912 20.664 12.472C20.936 13.016 21.072 13.672 21.072 14.44C21.072 15.176 20.928 15.84 20.64 16.432C20.368 17.024 19.984 17.528 19.488 17.944C19.008 18.36 18.456 18.68 17.832 18.904C17.224 19.128 16.584 19.24 15.912 19.24C15 19.24 14.152 19.048 13.368 18.664C12.6 18.264 11.92 17.744 11.328 17.104C10.752 16.448 10.28 15.752 9.912 15.016L11.544 13.912ZM24.8124 13.48C24.8124 14.248 24.9724 14.928 25.2924 15.52C25.6284 16.112 26.0764 16.584 26.6364 16.936C27.2124 17.272 27.8604 17.44 28.5804 17.44C29.1724 17.44 29.7244 17.352 30.2364 17.176C30.7644 16.984 31.2204 16.736 31.6044 16.432C31.9884 16.112 32.2604 15.776 32.4204 15.424V17.824C32.0364 18.272 31.4844 18.624 30.7644 18.88C30.0604 19.12 29.3324 19.24 28.5804 19.24C27.5084 19.24 26.5404 18.992 25.6764 18.496C24.8124 18 24.1244 17.32 23.6124 16.456C23.1164 15.576 22.8684 14.584 22.8684 13.48C22.8684 12.36 23.1164 11.368 23.6124 10.504C24.1244 9.64 24.8124 8.96 25.6764 8.464C26.5404 7.968 27.5084 7.72 28.5804 7.72C29.3324 7.72 30.0604 7.848 30.7644 8.104C31.4844 8.344 32.0364 8.688 32.4204 9.136V11.536C32.2604 11.168 31.9884 10.832 31.6044 10.528C31.2204 10.224 30.7644 9.984 30.2364 9.808C29.7244 9.616 29.1724 9.52 28.5804 9.52C27.8604 9.52 27.2124 9.688 26.6364 10.024C26.0764 10.36 25.6284 10.832 25.2924 11.44C24.9724 12.032 24.8124 12.712 24.8124 13.48ZM37.3294 0.279999V19H35.4094V0.279999L37.3294 0.279999ZM42.4894 12.28C42.4894 11.368 42.2894 10.68 41.8894 10.216C41.5054 9.752 40.9214 9.52 40.1374 9.52C39.5774 9.52 39.0814 9.64 38.6494 9.88C38.2334 10.12 37.9054 10.448 37.6654 10.864C37.4414 11.28 37.3294 11.752 37.3294 12.28H36.7054C36.7054 11.4 36.8734 10.624 37.2094 9.952C37.5454 9.264 38.0014 8.72 38.5774 8.32C39.1694 7.92 39.8494 7.72 40.6174 7.72C41.3854 7.72 42.0494 7.88 42.6094 8.2C43.1854 8.52 43.6254 9 43.9294 9.64C44.2494 10.28 44.4094 11.08 44.4094 12.04V19H42.4894V12.28ZM47.0588 13.48C47.0588 12.36 47.3067 11.368 47.8027 10.504C48.3148 9.64 49.0028 8.96 49.8668 8.464C50.7308 7.968 51.6988 7.72 52.7708 7.72C53.8588 7.72 54.8268 7.968 55.6748 8.464C56.5388 8.96 57.2188 9.64 57.7148 10.504C58.2268 11.368 58.4828 12.36 58.4828 13.48C58.4828 14.584 58.2268 15.576 57.7148 16.456C57.2188 17.32 56.5388 18 55.6748 18.496C54.8268 18.992 53.8588 19.24 52.7708 19.24C51.6988 19.24 50.7308 18.992 49.8668 18.496C49.0028 18 48.3148 17.32 47.8027 16.456C47.3067 15.576 47.0588 14.584 47.0588 13.48ZM49.0028 13.48C49.0028 14.248 49.1628 14.928 49.4828 15.52C49.8188 16.112 50.2668 16.584 50.8268 16.936C51.4028 17.272 52.0508 17.44 52.7708 17.44C53.4908 17.44 54.1308 17.272 54.6908 16.936C55.2668 16.584 55.7148 16.112 56.0348 15.52C56.3708 14.928 56.5388 14.248 56.5388 13.48C56.5388 12.712 56.3708 12.032 56.0348 11.44C55.7148 10.832 55.2668 10.36 54.6908 10.024C54.1308 9.688 53.4908 9.52 52.7708 9.52C52.0508 9.52 51.4028 9.688 50.8268 10.024C50.2668 10.36 49.8188 10.832 49.4828 11.44C49.1628 12.032 49.0028 12.712 49.0028 13.48ZM53.8508 4.24C53.8508 3.872 53.9788 3.56 54.2348 3.304C54.5068 3.048 54.8188 2.92 55.1708 2.92C55.5388 2.92 55.8508 3.048 56.1068 3.304C56.3628 3.56 56.4908 3.872 56.4908 4.24C56.4908 4.592 56.3628 4.904 56.1068 5.176C55.8508 5.432 55.5388 5.56 55.1708 5.56C54.8188 5.56 54.5068 5.432 54.2348 5.176C53.9788 4.904 53.8508 4.592 53.8508 4.24ZM49.0508 4.24C49.0508 3.872 49.1788 3.56 49.4348 3.304C49.7068 3.048 50.0188 2.92 50.3708 2.92C50.7388 2.92 51.0508 3.048 51.3068 3.304C51.5628 3.56 51.6908 3.872 51.6908 4.24C51.6908 4.592 51.5628 4.904 51.3068 5.176C51.0508 5.432 50.7388 5.56 50.3708 5.56C50.0188 5.56 49.7068 5.432 49.4348 5.176C49.1788 4.904 49.0508 4.592 49.0508 4.24ZM68.2003 12.28C68.2003 11.368 68.0003 10.68 67.6003 10.216C67.2003 9.752 66.6163 9.52 65.8483 9.52C65.2883 9.52 64.7923 9.64 64.3603 9.88C63.9443 10.104 63.6163 10.424 63.3763 10.84C63.1523 11.256 63.0403 11.736 63.0403 12.28V19H61.1203V7.96H63.0403V9.688C63.4083 9.016 63.8643 8.52 64.4083 8.2C64.9683 7.88 65.6083 7.72 66.3283 7.72C67.4963 7.72 68.4163 8.112 69.0883 8.896C69.7763 9.664 70.1203 10.712 70.1203 12.04V19H68.2003V12.28ZM72.8897 7.96L78.4097 7.96V9.76L72.8897 9.76V7.96ZM78.2177 2.584C78.0577 2.312 77.8657 2.144 77.6417 2.08C77.4337 2 77.2337 1.96 77.0417 1.96C76.8017 1.96 76.5937 2.032 76.4177 2.176C76.2577 2.304 76.1297 2.528 76.0337 2.848C75.9377 3.168 75.8897 3.592 75.8897 4.12V19H73.9697V3.88C73.9697 3 74.0977 2.28 74.3537 1.72C74.6097 1.16 74.9697 0.743999 75.4337 0.472C75.9137 0.184 76.4897 0.0399995 77.1617 0.0399995C77.5137 0.0399995 77.8257 0.0879993 78.0977 0.183999C78.3697 0.279999 78.6017 0.399999 78.7937 0.543999C79.0017 0.687999 79.1617 0.839999 79.2737 0.999999L78.2177 2.584ZM84.8689 19.24C83.8449 19.24 82.9329 19 82.1329 18.52C81.3489 18.024 80.7329 17.344 80.2849 16.48C79.8529 15.616 79.6369 14.616 79.6369 13.48C79.6369 12.328 79.8609 11.32 80.3089 10.456C80.7729 9.592 81.4129 8.92 82.2289 8.44C83.0609 7.96 84.0209 7.72 85.1089 7.72C86.1969 7.72 87.1249 7.952 87.8929 8.416C88.6769 8.864 89.2769 9.512 89.6929 10.36C90.1089 11.208 90.3169 12.216 90.3169 13.384C90.3169 13.496 90.3089 13.616 90.2929 13.744C90.2929 13.856 90.2929 13.928 90.2929 13.96L80.8609 13.96V12.328L88.7809 12.328L88.0129 13.432C88.0609 13.352 88.1089 13.232 88.1569 13.072C88.2049 12.896 88.2289 12.752 88.2289 12.64C88.2289 11.984 88.0929 11.416 87.8209 10.936C87.5649 10.456 87.2049 10.08 86.7409 9.808C86.2769 9.536 85.7329 9.4 85.1089 9.4C84.3729 9.4 83.7409 9.56 83.2129 9.88C82.7009 10.184 82.3009 10.632 82.0129 11.224C81.7409 11.8 81.5969 12.512 81.5809 13.36C81.5809 14.224 81.7169 14.96 81.9889 15.568C82.2609 16.176 82.6609 16.64 83.1889 16.96C83.7169 17.28 84.3569 17.44 85.1089 17.44C85.8609 17.44 86.5249 17.28 87.1009 16.96C87.6769 16.624 88.1649 16.12 88.5649 15.448L90.1249 16.432C89.5489 17.36 88.8209 18.064 87.9409 18.544C87.0769 19.008 86.0529 19.24 84.8689 19.24ZM92.9484 0.279999L94.8684 0.279999V19H92.9484V0.279999ZM106.76 0.279999L108.68 0.279999V19H106.76V0.279999ZM97.5197 13.48C97.5197 12.28 97.7677 11.256 98.2637 10.408C98.7597 9.544 99.4237 8.88 100.256 8.416C101.088 7.952 102 7.72 102.992 7.72C103.92 7.72 104.728 7.952 105.416 8.416C106.104 8.88 106.64 9.544 107.024 10.408C107.424 11.256 107.624 12.28 107.624 13.48C107.624 14.664 107.424 15.688 107.024 16.552C106.64 17.416 106.104 18.08 105.416 18.544C104.728 19.008 103.92 19.24 102.992 19.24C102 19.24 101.088 19.008 100.256 18.544C99.4237 18.08 98.7597 17.416 98.2637 16.552C97.7677 15.688 97.5197 14.664 97.5197 13.48ZM99.4637 13.48C99.4637 14.328 99.6317 15.048 99.9677 15.64C100.32 16.232 100.784 16.68 101.36 16.984C101.936 17.288 102.56 17.44 103.232 17.44C103.792 17.44 104.344 17.288 104.888 16.984C105.432 16.68 105.88 16.232 106.232 15.64C106.584 15.048 106.76 14.328 106.76 13.48C106.76 12.632 106.584 11.912 106.232 11.32C105.88 10.728 105.432 10.28 104.888 9.976C104.344 9.672 103.792 9.52 103.232 9.52C102.56 9.52 101.936 9.672 101.36 9.976C100.784 10.28 100.32 10.728 99.9677 11.32C99.6317 11.912 99.4637 12.632 99.4637 13.48ZM110.487 7.96L116.007 7.96V9.76L110.487 9.76V7.96ZM112.287 4.12H114.207V19H112.287V4.12Z" fill="#F7F7F7"/>
</svg>
